<svg xmlns="http://www.w3.org/2000/svg" viewBox="0 0 920 420" width="920" height="420" font-family="'Segoe UI', system-ui, -apple-system, sans-serif">
  <defs>
    <marker id="arrowG" markerWidth="8" markerHeight="6" refX="8" refY="3" orient="auto">
      <path d="M0,0 L8,3 L0,6" fill="#475569"/>
    </marker>
    <marker id="arrowRed" markerWidth="8" markerHeight="6" refX="8" refY="3" orient="auto">
      <path d="M0,0 L8,3 L0,6" fill="#DC2626"/>
    </marker>
    <marker id="arrowGreen" markerWidth="8" markerHeight="6" refX="8" refY="3" orient="auto">
      <path d="M0,0 L8,3 L0,6" fill="#059669"/>
    </marker>
    <filter id="shadow" x="-2%" y="-2%" width="104%" height="108%">
      <feDropShadow dx="0" dy="1" stdDeviation="2" flood-opacity="0.1"/>
    </filter>
    <filter id="shadowSm" x="-1%" y="-1%" width="102%" height="106%">
      <feDropShadow dx="0" dy="0.5" stdDeviation="1" flood-opacity="0.08"/>
    </filter>
  </defs>

  <!-- Background -->
  <rect width="920" height="420" rx="12" fill="#F8FAFC"/>
  <rect x="1" y="1" width="918" height="418" rx="12" fill="none" stroke="#E2E8F0" stroke-width="1"/>

  <!-- Title -->
  <text x="460" y="30" text-anchor="middle" font-size="17" font-weight="700" fill="#1E293B">Delivery Semantics</text>

  <!-- ============ Panel 1: At-Least-Once ============ -->
  <rect x="18" y="48" width="280" height="360" rx="12" fill="white" stroke="#D97706" stroke-width="1.5" filter="url(#shadow)"/>
  <rect x="18" y="48" width="280" height="30" rx="12" fill="#D97706"/>
  <rect x="18" y="68" width="280" height="10" fill="#D97706"/>
  <text x="158" y="69" text-anchor="middle" font-size="13" font-weight="700" fill="white">At-Least-Once</text>

  <!-- Source -->
  <rect x="38" y="105" width="70" height="36" rx="6" fill="#DBEAFE" stroke="#93C5FD" stroke-width="1.2"/>
  <text x="73" y="127" text-anchor="middle" font-size="11" font-weight="600" fill="#1E40AF">Source</text>

  <!-- Arrow -->
  <line x1="108" y1="123" x2="138" y2="123" stroke="#475569" stroke-width="1.5" marker-end="url(#arrowG)"/>

  <!-- Process -->
  <rect x="143" y="105" width="75" height="36" rx="6" fill="#EFF6FF" stroke="#2563EB" stroke-width="1.5"/>
  <text x="180" y="127" text-anchor="middle" font-size="11" font-weight="600" fill="#1E40AF">Process</text>

  <!-- Arrow -->
  <line x1="218" y1="123" x2="248" y2="123" stroke="#475569" stroke-width="1.5" marker-end="url(#arrowG)"/>

  <!-- Sink -->
  <rect x="253" y="105" width="70" height="36" rx="6" fill="#FEE2E2" stroke="#FECACA" stroke-width="1.2"/>
  <text x="288" y="127" text-anchor="middle" font-size="11" font-weight="600" fill="#991B1B">Sink</text>

  <!-- Retry loop arrow -->
  <path d="M180,141 Q180,175 220,175 Q260,175 260,141" stroke="#D97706" stroke-width="1.5" fill="none" stroke-dasharray="4,2" marker-end="url(#arrowG)"/>
  <text x="230" y="172" text-anchor="middle" font-size="8" fill="#D97706" font-weight="600">retry</text>

  <!-- Duplicates illustration -->
  <text x="158" y="215" text-anchor="middle" font-size="11" font-weight="600" fill="#475569">Possible Duplicates:</text>
  <rect x="55" y="225" width="50" height="28" rx="5" fill="#FEF3C7" stroke="#F59E0B" stroke-width="1"/>
  <text x="80" y="243" text-anchor="middle" font-size="14" font-weight="700" fill="#D97706">⊕⊕</text>
  <rect x="115" y="225" width="50" height="28" rx="5" fill="#FEF3C7" stroke="#F59E0B" stroke-width="1"/>
  <text x="140" y="243" text-anchor="middle" font-size="14" font-weight="700" fill="#D97706">⊕⊕</text>
  <rect x="175" y="225" width="50" height="28" rx="5" fill="#DCEDC8" stroke="#66BB6A" stroke-width="1"/>
  <text x="200" y="243" text-anchor="middle" font-size="14" font-weight="700" fill="#2E7D32">⊕</text>

  <!-- Description -->
  <text x="158" y="280" text-anchor="middle" font-size="10" fill="#475569">Records are reprocessed on failure</text>
  <text x="158" y="296" text-anchor="middle" font-size="10" fill="#475569">to guarantee no data loss.</text>
  <line x1="50" y1="308" x2="266" y2="308" stroke="#FDE68A" stroke-width="0.5"/>
  <text x="158" y="326" text-anchor="middle" font-size="9" font-weight="600" fill="#059669">✓ No data loss</text>
  <text x="158" y="342" text-anchor="middle" font-size="9" font-weight="600" fill="#DC2626">✗ Possible duplicates</text>
  <text x="158" y="358" text-anchor="middle" font-size="9" fill="#94A3B8">Best for: analytics, logging</text>

  <!-- ============ Panel 2: At-Most-Once ============ -->
  <rect x="320" y="48" width="280" height="360" rx="12" fill="white" stroke="#DC2626" stroke-width="1.5" filter="url(#shadow)"/>
  <rect x="320" y="48" width="280" height="30" rx="12" fill="#DC2626"/>
  <rect x="320" y="68" width="280" height="10" fill="#DC2626"/>
  <text x="460" y="69" text-anchor="middle" font-size="13" font-weight="700" fill="white">At-Most-Once</text>

  <!-- Source -->
  <rect x="340" y="105" width="70" height="36" rx="6" fill="#DBEAFE" stroke="#93C5FD" stroke-width="1.2"/>
  <text x="375" y="127" text-anchor="middle" font-size="11" font-weight="600" fill="#1E40AF">Source</text>

  <!-- Arrow -->
  <line x1="410" y1="123" x2="440" y2="123" stroke="#475569" stroke-width="1.5" marker-end="url(#arrowG)"/>

  <!-- Process -->
  <rect x="445" y="105" width="75" height="36" rx="6" fill="#EFF6FF" stroke="#2563EB" stroke-width="1.5"/>
  <text x="482" y="127" text-anchor="middle" font-size="11" font-weight="600" fill="#1E40AF">Process</text>

  <!-- Arrow -->
  <line x1="520" y1="123" x2="550" y2="123" stroke="#475569" stroke-width="1.5" marker-end="url(#arrowG)"/>

  <!-- Sink -->
  <rect x="555" y="105" width="70" height="36" rx="6" fill="#FEE2E2" stroke="#FECACA" stroke-width="1.2"/>
  <text x="590" y="127" text-anchor="middle" font-size="11" font-weight="600" fill="#991B1B">Sink</text>

  <!-- Drop indicator -->
  <rect x="465" y="150" width="36" height="36" rx="50%" fill="#FEE2E2" stroke="#DC2626" stroke-width="1.5"/>
  <text x="483" y="173" text-anchor="middle" font-size="16" font-weight="700" fill="#DC2626">⊘</text>
  <line x1="482" y1="141" x2="482" y2="150" stroke="#DC2626" stroke-width="1" stroke-dasharray="3,2"/>
  <text x="483" y="202" text-anchor="middle" font-size="8" font-weight="600" fill="#DC2626">error → drop</text>

  <!-- Dropped records illustration -->
  <text x="460" y="225" text-anchor="middle" font-size="11" font-weight="600" fill="#475569">Dropped Records:</text>
  <rect x="357" y="235" width="50" height="28" rx="5" fill="#FEE2E2" stroke="#EF4444" stroke-width="1"/>
  <text x="382" y="253" text-anchor="middle" font-size="14" font-weight="700" fill="#DC2626">⊘</text>
  <rect x="417" y="235" width="50" height="28" rx="5" fill="#DCEDC8" stroke="#66BB6A" stroke-width="1"/>
  <text x="442" y="253" text-anchor="middle" font-size="14" font-weight="700" fill="#2E7D32">⊕</text>
  <rect x="477" y="235" width="50" height="28" rx="5" fill="#FEE2E2" stroke="#EF4444" stroke-width="1"/>
  <text x="502" y="253" text-anchor="middle" font-size="14" font-weight="700" fill="#DC2626">⊘</text>

  <!-- Description -->
  <text x="460" y="280" text-anchor="middle" font-size="10" fill="#475569">No retries — failed records are</text>
  <text x="460" y="296" text-anchor="middle" font-size="10" fill="#475569">silently dropped.</text>
  <line x1="352" y1="308" x2="568" y2="308" stroke="#FECACA" stroke-width="0.5"/>
  <text x="460" y="326" text-anchor="middle" font-size="9" font-weight="600" fill="#059669">✓ No duplicates</text>
  <text x="460" y="342" text-anchor="middle" font-size="9" font-weight="600" fill="#DC2626">✗ Possible data loss</text>
  <text x="460" y="358" text-anchor="middle" font-size="9" fill="#94A3B8">Best for: monitoring, sampling</text>

  <!-- ============ Panel 3: Exactly-Once ============ -->
  <rect x="622" y="48" width="280" height="360" rx="12" fill="white" stroke="#059669" stroke-width="1.5" filter="url(#shadow)"/>
  <rect x="622" y="48" width="280" height="30" rx="12" fill="#059669"/>
  <rect x="622" y="68" width="280" height="10" fill="#059669"/>
  <text x="762" y="69" text-anchor="middle" font-size="13" font-weight="700" fill="white">Exactly-Once</text>

  <!-- Source -->
  <rect x="635" y="105" width="55" height="36" rx="6" fill="#DBEAFE" stroke="#93C5FD" stroke-width="1.2"/>
  <text x="662" y="127" text-anchor="middle" font-size="10" font-weight="600" fill="#1E40AF">Source</text>

  <!-- Arrow -->
  <line x1="690" y1="123" x2="705" y2="123" stroke="#475569" stroke-width="1.2" marker-end="url(#arrowG)"/>

  <!-- Dedup (SHA-256) -->
  <rect x="710" y="105" width="55" height="36" rx="6" fill="#ECFDF5" stroke="#059669" stroke-width="1.2"/>
  <text x="737" y="121" text-anchor="middle" font-size="8" font-weight="600" fill="#047857">Dedup</text>
  <text x="737" y="133" text-anchor="middle" font-size="7" fill="#059669">SHA-256</text>

  <!-- Arrow -->
  <line x1="765" y1="123" x2="780" y2="123" stroke="#475569" stroke-width="1.2" marker-end="url(#arrowG)"/>

  <!-- Process -->
  <rect x="785" y="105" width="55" height="36" rx="6" fill="#EFF6FF" stroke="#2563EB" stroke-width="1.2"/>
  <text x="812" y="127" text-anchor="middle" font-size="10" font-weight="600" fill="#1E40AF">Process</text>

  <!-- Arrow -->
  <line x1="840" y1="123" x2="855" y2="80" stroke="none"/>
  <line x1="840" y1="123" x2="862" y2="123" stroke="none"/>

  <!-- Second row for dedup check and sink -->
  <!-- Arrow down from Process -->
  <line x1="812" y1="141" x2="812" y2="160" stroke="#475569" stroke-width="1.2" marker-end="url(#arrowG)"/>

  <!-- Dedup check -->
  <rect x="775" y="165" width="75" height="32" rx="6" fill="#ECFDF5" stroke="#059669" stroke-width="1.2"/>
  <text x="812" y="183" text-anchor="middle" font-size="9" font-weight="600" fill="#047857">Dedup check</text>

  <!-- Arrow to sink -->
  <line x1="812" y1="197" x2="812" y2="215" stroke="#475569" stroke-width="1.2" marker-end="url(#arrowG)"/>

  <!-- Sink -->
  <rect x="780" y="220" width="65" height="30" rx="6" fill="#FEE2E2" stroke="#FECACA" stroke-width="1.2"/>
  <text x="812" y="239" text-anchor="middle" font-size="10" font-weight="600" fill="#991B1B">Sink</text>

  <!-- Checkmark -->
  <rect x="797" y="255" width="30" height="30" rx="50%" fill="#D1FAE5" stroke="#059669" stroke-width="1.5"/>
  <text x="812" y="275" text-anchor="middle" font-size="14" font-weight="700" fill="#059669">✓</text>

  <!-- Unique IDs illustration -->
  <text x="762" y="225" text-anchor="middle" font-size="10" font-weight="600" fill="#475569" opacity="0">Unique IDs:</text>

  <!-- Row of unique record indicators -->
  <g transform="translate(645, 225)">
    <rect x="0" y="0" width="36" height="22" rx="4" fill="#D1FAE5" stroke="#059669" stroke-width="0.8"/>
    <text x="18" y="15" text-anchor="middle" font-size="8" fill="#047857">id:a1</text>
    <rect x="42" y="0" width="36" height="22" rx="4" fill="#D1FAE5" stroke="#059669" stroke-width="0.8"/>
    <text x="60" y="15" text-anchor="middle" font-size="8" fill="#047857">id:b2</text>
    <rect x="84" y="0" width="36" height="22" rx="4" fill="#D1FAE5" stroke="#059669" stroke-width="0.8"/>
    <text x="102" y="15" text-anchor="middle" font-size="8" fill="#047857">id:c3</text>
  </g>

  <!-- Description -->
  <text x="762" y="310" text-anchor="middle" font-size="10" fill="#475569">SHA-256 deduplication ensures</text>
  <text x="762" y="326" text-anchor="middle" font-size="10" fill="#475569">each record processed exactly once.</text>
  <line x1="650" y1="340" x2="872" y2="340" stroke="#A7F3D0" stroke-width="0.5"/>
  <text x="762" y="358" text-anchor="middle" font-size="9" font-weight="600" fill="#059669">✓ No data loss</text>
  <text x="762" y="374" text-anchor="middle" font-size="9" font-weight="600" fill="#059669">✓ No duplicates</text>
  <text x="762" y="390" text-anchor="middle" font-size="9" fill="#94A3B8">Best for: financial, critical data</text>
</svg>