<svg xmlns="http://www.w3.org/2000/svg" viewBox="0 0 920 400" width="920" height="400" font-family="Helvetica, Arial, sans-serif">
  <defs>
    <linearGradient id="spectrumGrad" x1="0" y1="0" x2="1" y2="0">
      <stop offset="0%" stop-color="#2563EB" stop-opacity="0.9"/>
      <stop offset="25%" stop-color="#38BDF8"/>
      <stop offset="50%" stop-color="#D97706"/>
      <stop offset="75%" stop-color="#92400E"/>
      <stop offset="100%" stop-color="#64748B"/>
    </linearGradient>
    <linearGradient id="barGrad" x1="0" y1="0" x2="1" y2="0">
      <stop offset="0%" stop-color="#2563EB"/>
      <stop offset="50%" stop-color="#D97706"/>
      <stop offset="100%" stop-color="#64748B"/>
    </linearGradient>
    <filter id="shadow" x="-2%" y="-2%" width="104%" height="108%">
      <feDropShadow dx="0" dy="1" stdDeviation="2" flood-opacity="0.12"/>
    </filter>
    <marker id="arrowEnd" markerWidth="8" markerHeight="6" refX="8" refY="3" orient="auto">
      <path d="M0,0 L8,3 L0,6" fill="#475569"/>
    </marker>
  </defs>

  <!-- Background -->
  <rect width="920" height="400" rx="12" fill="#F8FAFC"/>
  <rect x="1" y="1" width="918" height="398" rx="12" fill="none" stroke="#E2E8F0" stroke-width="1"/>

  <!-- Title -->
  <text x="460" y="32" text-anchor="middle" font-size="20" font-weight="700" fill="#1E293B">Viscosity Spectrum</text>
  <text x="460" y="54" text-anchor="middle" font-size="16" fill="#334155">&#x03B7; in [0, 1]</text>
  <text x="460" y="72" text-anchor="middle" font-size="13" fill="#64748B">From pure streaming to pure batch processing</text>

  <!-- Spectrum bar -->
  <rect x="60" y="95" width="800" height="22" rx="11" fill="url(#spectrumGrad)" filter="url(#shadow)"/>

  <!-- Tick marks and eta values -->
  <line x1="60" y1="117" x2="60" y2="132" stroke="#2563EB" stroke-width="2.5"/>
  <text x="60" y="150" text-anchor="middle" font-size="15" font-weight="700" fill="#2563EB">&#x03B7;=0</text>

  <line x1="260" y1="117" x2="260" y2="132" stroke="#0EA5E9" stroke-width="2.5"/>
  <text x="260" y="150" text-anchor="middle" font-size="15" font-weight="700" fill="#0EA5E9">&#x03B7;=0.25</text>

  <line x1="460" y1="117" x2="460" y2="132" stroke="#D97706" stroke-width="2.5"/>
  <text x="460" y="150" text-anchor="middle" font-size="15" font-weight="700" fill="#D97706">&#x03B7;=0.5</text>

  <line x1="660" y1="117" x2="660" y2="132" stroke="#92400E" stroke-width="2.5"/>
  <text x="660" y="150" text-anchor="middle" font-size="15" font-weight="700" fill="#92400E">&#x03B7;=0.75</text>

  <line x1="860" y1="117" x2="860" y2="132" stroke="#64748B" stroke-width="2.5"/>
  <text x="860" y="150" text-anchor="middle" font-size="15" font-weight="700" fill="#64748B">&#x03B7;=1</text>

  <!-- Arrow along spectrum -->
  <line x1="60" y1="165" x2="860" y2="165" stroke="#94A3B8" stroke-width="2" marker-end="url(#arrowEnd)"/>
  <text x="460" y="183" text-anchor="middle" font-size="12" fill="#94A3B8">increasing viscosity</text>

  <!-- level cards -->
  <!-- VOLATILE -->
  <rect x="20" y="198" width="160" height="185" rx="12" fill="white" stroke="#BFDBFE" stroke-width="2" filter="url(#shadow)"/>
  <rect x="20" y="198" width="160" height="8" rx="4" fill="#2563EB"/>
  <!-- Water droplet icon -->
  <path d="M88,228 C88,228 74,248 74,260 C74,268.5 80.5,276 88,276 C95.5,276 102,268.5 102,260 C102,248 88,228 88,228Z" fill="#2563EB" opacity="0.8"/>
  <text x="100" y="296" text-anchor="middle" font-size="16" font-weight="700" fill="#1E40AF">VOLATILE</text>
  <text x="100" y="315" text-anchor="middle" font-size="13" fill="#3B82F6" font-style="italic">ru shui (Like Water)</text>
  <text x="100" y="337" text-anchor="middle" font-size="12" font-weight="600" fill="#2563EB">Pure Streaming</text>
  <line x1="40" y1="348" x2="160" y2="348" stroke="#E2E8F0" stroke-width="1"/>
  <text x="100" y="366" text-anchor="middle" font-size="11" fill="#475569">batch_size = 1</text>
  <text x="100" y="381" text-anchor="middle" font-size="11" fill="#475569">timeout = 10 ms</text>

  <!-- FLUID -->
  <rect x="195" y="198" width="160" height="185" rx="12" fill="white" stroke="#BAE6FD" stroke-width="2" filter="url(#shadow)"/>
  <rect x="195" y="198" width="160" height="8" rx="4" fill="#0EA5E9"/>
  <!-- Stream icon -->
  <path d="M263,234 Q270,243 277,234 Q284,225 291,234" stroke="#0EA5E9" stroke-width="3" fill="none" stroke-linecap="round"/>
  <path d="M263,246 Q270,255 277,246 Q284,237 291,246" stroke="#38BDF8" stroke-width="2.5" fill="none" stroke-linecap="round"/>
  <path d="M263,258 Q270,267 277,258 Q284,249 291,258" stroke="#7DD3FC" stroke-width="2" fill="none" stroke-linecap="round"/>
  <text x="275" y="296" text-anchor="middle" font-size="16" font-weight="700" fill="#0369A1">FLUID</text>
  <text x="275" y="315" text-anchor="middle" font-size="13" fill="#0EA5E9" font-style="italic">ru xi (Like Stream)</text>
  <text x="275" y="337" text-anchor="middle" font-size="12" font-weight="600" fill="#0EA5E9">Low-latency</text>
  <line x1="215" y1="348" x2="335" y2="348" stroke="#E2E8F0" stroke-width="1"/>
  <text x="275" y="366" text-anchor="middle" font-size="11" fill="#475569">batch_size = 50</text>
  <text x="275" y="381" text-anchor="middle" font-size="11" fill="#475569">timeout = 50 ms</text>

  <!-- HONEYED -->
  <rect x="370" y="198" width="160" height="185" rx="12" fill="white" stroke="#FDE68A" stroke-width="2" filter="url(#shadow)"/>
  <rect x="370" y="198" width="160" height="8" rx="4" fill="#D97706"/>
  <!-- Honey icon -->
  <ellipse cx="450" cy="244" rx="16" ry="12" fill="#F59E0B" opacity="0.4"/>
  <path d="M446,236 L446,258 Q446,264 450,264 Q454,264 454,258 L454,236" fill="#D97706" opacity="0.7" stroke="#B45309" stroke-width="0.5"/>
  <ellipse cx="450" cy="236" rx="5" ry="3" fill="#FBBF24"/>
  <text x="450" y="296" text-anchor="middle" font-size="16" font-weight="700" fill="#92400E">HONEYED</text>
  <text x="450" y="315" text-anchor="middle" font-size="13" fill="#D97706" font-style="italic">ru mi (Like Honey)</text>
  <text x="450" y="337" text-anchor="middle" font-size="12" font-weight="600" fill="#D97706">Balanced</text>
  <line x1="390" y1="348" x2="510" y2="348" stroke="#E2E8F0" stroke-width="1"/>
  <text x="450" y="366" text-anchor="middle" font-size="11" fill="#475569">batch_size = 500</text>
  <text x="450" y="381" text-anchor="middle" font-size="11" fill="#475569">timeout = 100 ms</text>

  <!-- SLUGGISH -->
  <rect x="545" y="198" width="160" height="185" rx="12" fill="white" stroke="#D6D3D1" stroke-width="2" filter="url(#shadow)"/>
  <rect x="545" y="198" width="160" height="8" rx="4" fill="#78350F"/>
  <!-- Mud icon -->
  <ellipse cx="625" cy="248" rx="18" ry="12" fill="#92400E" opacity="0.3"/>
  <ellipse cx="625" cy="246" rx="14" ry="9" fill="#78350F" opacity="0.5"/>
  <ellipse cx="625" cy="244" rx="10" ry="6" fill="#A16207" opacity="0.6"/>
  <path d="M618,256 Q621,261 625,256 Q629,261 632,256" stroke="#78350F" stroke-width="2" fill="none"/>
  <text x="625" y="296" text-anchor="middle" font-size="16" font-weight="700" fill="#78350F">SLUGGISH</text>
  <text x="625" y="315" text-anchor="middle" font-size="13" fill="#92400E" font-style="italic">ru ni (Like Mud)</text>
  <text x="625" y="337" text-anchor="middle" font-size="12" font-weight="600" fill="#92400E">High-throughput</text>
  <line x1="565" y1="348" x2="685" y2="348" stroke="#E2E8F0" stroke-width="1"/>
  <text x="625" y="366" text-anchor="middle" font-size="11" fill="#475569">batch_size = 5,000</text>
  <text x="625" y="381" text-anchor="middle" font-size="11" fill="#475569">timeout = 500 ms</text>

  <!-- FROZEN -->
  <rect x="720" y="198" width="160" height="185" rx="12" fill="white" stroke="#CBD5E1" stroke-width="2" filter="url(#shadow)"/>
  <rect x="720" y="198" width="160" height="8" rx="4" fill="#64748B"/>
  <!-- Ice icon -->
  <g transform="translate(800, 248)">
    <line x1="0" y1="-16" x2="0" y2="16" stroke="#94A3B8" stroke-width="3" stroke-linecap="round"/>
    <line x1="-14" y1="0" x2="14" y2="0" stroke="#94A3B8" stroke-width="3" stroke-linecap="round"/>
    <line x1="-9" y1="-9" x2="9" y2="9" stroke="#94A3B8" stroke-width="2" stroke-linecap="round"/>
    <line x1="9" y1="-9" x2="-9" y2="9" stroke="#94A3B8" stroke-width="2" stroke-linecap="round"/>
    <circle cx="0" cy="0" r="4" fill="#CBD5E1"/>
  </g>
  <text x="800" y="296" text-anchor="middle" font-size="16" font-weight="700" fill="#334155">FROZEN</text>
  <text x="800" y="315" text-anchor="middle" font-size="13" fill="#64748B" font-style="italic">ru bing (Like Ice)</text>
  <text x="800" y="337" text-anchor="middle" font-size="12" font-weight="600" fill="#64748B">Pure Batch</text>
  <line x1="740" y1="348" x2="860" y2="348" stroke="#E2E8F0" stroke-width="1"/>
  <text x="800" y="366" text-anchor="middle" font-size="11" fill="#475569">batch_size = 100,000</text>
  <text x="800" y="381" text-anchor="middle" font-size="11" fill="#475569">timeout = 2,000 ms</text>
</svg>